<svg width="32" height="32" viewBox="0 0 32 32" fill="none" xmlns="http://www.w3.org/2000/svg">
<path d="M31.9861 11.0532C31.9861 12.8246 32.0213 14.596 31.9797 16.3653C31.8933 20.0297 30.6794 23.2919 28.3669 26.1379C27.0465 27.7651 25.4146 29.1121 23.567 30.1001C21.7455 31.0938 19.7428 31.7108 17.678 31.9142C13.405 32.3272 9.54696 31.244 6.15821 28.6061C3.39985 26.4644 1.55667 23.6899 0.597754 20.3307C0.149807 18.771 -0.0485553 17.1503 0.0100289 15.5287C0.14976 11.6604 1.48734 8.26267 4.0537 5.36759C6.187 2.96445 8.81523 1.35951 11.9149 0.526091C13.202 0.180054 14.5288 0.00426221 15.8615 0.00320515C19.4576 0.00107092 23.0522 3.80745e-06 26.6454 3.80745e-06C27.9517 -0.00155589 29.2133 0.476121 30.1912 1.3426C31.1692 2.20907 31.7956 3.4042 31.952 4.70171C31.9774 4.92953 31.9895 5.15864 31.9882 5.38786C31.9882 7.27666 31.9882 9.16474 31.9882 11.0521L31.9861 11.0532Z" fill="#58CC02"/>
<ellipse cx="16" cy="16.0067" rx="11.8398" ry="11.845" fill="#404040"/>
<g filter="url(#filter0_d_710_2)">
<path fill-rule="evenodd" clip-rule="evenodd" d="M28.8406 18.1335C28.6878 18.3306 28.4947 18.4929 28.2742 18.6094C27.8518 18.8527 27.5542 19.1696 27.4817 19.6669C27.4704 19.7351 27.4632 19.8038 27.4604 19.8729C27.4572 20.1236 27.5766 20.2613 27.8251 20.2517C28.0604 20.2426 28.2947 20.2198 28.529 20.1971C28.6228 20.188 28.7167 20.1788 28.8107 20.1706L29.0241 20.1514C28.9778 20.2202 28.9361 20.2849 28.8964 20.3465C28.8308 20.4484 28.7705 20.5418 28.7041 20.6316C28.3315 21.1438 27.9553 21.6539 27.5756 22.1618C27.4168 22.351 27.2044 22.4876 26.9665 22.5535C26.8387 22.5992 26.7097 22.6416 26.5806 22.684C26.3606 22.7563 26.1407 22.8286 25.9276 22.9173C25.7753 22.9728 25.6452 23.0762 25.5569 23.2121C25.4686 23.3481 25.4268 23.509 25.438 23.6707C25.4309 23.7267 25.4423 23.7835 25.4704 23.8324C25.4985 23.8813 25.5418 23.9197 25.5937 23.9418C25.7562 24.004 25.9203 24.0604 26.085 24.117C26.2112 24.1604 26.3378 24.2039 26.4641 24.2502L26.7201 24.3345C26.6765 24.3873 26.6283 24.4362 26.5761 24.4807C26.3224 24.6548 26.0683 24.8281 25.8143 25.0012C25.466 25.2386 25.118 25.4759 24.7713 25.7153C24.4801 25.9159 24.1708 25.9298 23.8401 25.8765C23.6247 25.8423 23.4028 25.8178 23.1895 25.8018C23.0994 25.7924 23.0085 25.8071 22.926 25.8444C22.7375 25.9414 22.5589 26.0565 22.3927 26.1881C22.3414 26.2229 22.2995 26.2697 22.2705 26.3245C22.2415 26.3793 22.2263 26.4403 22.2263 26.5023C22.2263 26.5643 22.2415 26.6254 22.2705 26.6801C22.2995 26.7349 22.3414 26.7818 22.3927 26.8166C22.5344 26.9297 22.6852 27.0323 22.8362 27.1349C22.9102 27.1852 22.9842 27.2356 23.0572 27.2872L23.2129 27.4003C23.2068 27.408 23.2019 27.4158 23.1976 27.4226C23.19 27.4348 23.1842 27.444 23.1767 27.444C22.3655 27.7367 21.5328 27.9658 20.6861 28.1291C20.4801 28.1647 20.3078 28.0918 20.1332 28.0179C20.1088 28.0076 20.0845 27.9973 20.0599 27.9872C19.751 27.8468 19.4353 27.7222 19.1138 27.6137C18.7554 27.5102 18.4664 27.6553 18.2669 27.9669C18.2393 28.0023 18.2235 28.0454 18.2217 28.0902C18.22 28.1351 18.2325 28.1793 18.2573 28.2166C18.3825 28.4355 18.5028 28.6563 18.6234 28.8775C18.6609 28.9463 18.6985 29.0153 18.7362 29.0842C18.7559 29.1184 18.774 29.1537 18.7938 29.1919C18.8029 29.2097 18.8125 29.2282 18.8226 29.2475C18.8017 29.2575 18.7794 29.2643 18.7565 29.2677C18.5305 29.2594 18.3045 29.2505 18.0785 29.2417C17.5813 29.2222 17.0841 29.2027 16.5869 29.1888C16.2392 29.1792 15.9853 29.001 15.7549 28.7715C15.571 28.5884 15.3797 28.4142 15.1879 28.2395C15.1394 28.1953 15.0909 28.1511 15.0424 28.1067C14.9325 28.0088 14.8021 27.9367 14.6607 27.8959C14.5193 27.8551 14.3705 27.8465 14.2253 27.8709C14.1822 27.8709 14.1396 27.8802 14.1004 27.8981C14.0611 27.916 14.0262 27.9422 13.9979 27.9747C13.9696 28.0073 13.9486 28.0455 13.9363 28.0869C13.924 28.1283 13.9207 28.1718 13.9267 28.2145C13.9508 28.3769 13.9865 28.5374 14.0333 28.6947C14.0485 28.757 14.0658 28.8191 14.083 28.8812C14.1142 28.9934 14.1453 29.1057 14.1645 29.2197C14.1976 29.4161 14.1315 29.4684 13.9597 29.3819C13.2664 29.0362 12.5688 28.6872 11.8798 28.3287C11.6441 28.206 11.5225 27.9957 11.3998 27.746C11.3588 27.6627 11.3188 27.579 11.2789 27.4953C11.1991 27.3284 11.1195 27.1618 11.0329 26.9991C10.8238 26.6053 10.4782 26.4772 10.0515 26.5274C9.98114 26.5293 9.91364 26.5559 9.86082 26.6025C9.80799 26.6491 9.77319 26.7128 9.76248 26.7824C9.72993 26.9584 9.70972 27.1395 9.68988 27.3173C9.68565 27.3551 9.68145 27.3927 9.67715 27.4302C9.66392 27.5412 9.65373 27.6537 9.64205 27.7827C9.63677 27.841 9.63119 27.9027 9.62488 27.9691C9.54728 27.8875 9.47677 27.8139 9.41029 27.7445C9.33331 27.6642 9.26173 27.5895 9.19075 27.5145C9.11627 27.4361 9.04154 27.3579 8.9668 27.2797C8.73221 27.0342 8.49754 26.7887 8.27023 26.537C8.09822 26.348 7.93962 26.1473 7.79557 25.9362C7.73475 25.8303 7.69831 25.7122 7.68891 25.5905C7.67525 25.479 7.66815 25.3666 7.66106 25.2544C7.65097 25.0949 7.64091 24.9359 7.61211 24.7805C7.54384 24.4145 7.38491 24.0901 7.03825 23.9012C6.84092 23.7945 6.72679 23.8159 6.56466 23.9738C6.30759 24.2299 6.16786 24.5586 6.03133 24.8894C6.0132 24.9321 5.99613 24.9737 5.96413 25.0526C5.91842 24.9578 5.87356 24.869 5.83013 24.7831C5.7641 24.6524 5.7014 24.5283 5.64414 24.3996C5.4695 24.014 5.29925 23.6269 5.12914 23.2402C5.09353 23.1592 5.05792 23.0783 5.02228 22.9974C4.86015 22.6346 4.88788 22.26 4.99455 21.8876C5.01388 21.8183 5.03542 21.7495 5.05695 21.6807C5.10073 21.5408 5.14445 21.4011 5.16948 21.258C5.24308 20.8354 5.04681 20.4993 4.75668 20.2218C4.60629 20.0778 4.41642 20.146 4.26709 20.2464C4.09044 20.3684 3.92125 20.501 3.76043 20.6433C3.68023 20.7124 3.60467 20.7872 3.51973 20.8713C3.48268 20.908 3.44383 20.9464 3.40204 20.9869C3.38847 20.926 3.37815 20.8644 3.3711 20.8023C3.34693 20.1734 3.32311 19.5453 3.29964 18.9178C3.28775 18.7641 3.2849 18.6098 3.29111 18.4557C3.31742 18.124 3.5141 17.8734 3.70994 17.6238L3.71777 17.6138C3.76149 17.5536 3.8085 17.4959 3.85856 17.4409C4.16363 17.1315 4.16789 16.7505 4.10283 16.3631C4.09712 16.2945 4.07545 16.2281 4.03956 16.1694C4.00366 16.1106 3.95453 16.0611 3.89608 16.0247C3.83763 15.9883 3.77149 15.9661 3.70293 15.9598C3.63438 15.9535 3.56531 15.9634 3.50124 15.9886C3.28636 16.0568 3.07714 16.1414 2.86787 16.2261C2.77588 16.2634 2.68388 16.3006 2.59138 16.3365L2.42285 16.3983C2.45831 16.2861 2.49225 16.177 2.52545 16.0703C2.60711 15.8079 2.68427 15.56 2.76845 15.3142C2.8362 15.1166 2.90797 14.9203 2.97978 14.7238C3.0651 14.4903 3.15047 14.2566 3.22924 14.0208C3.30687 13.7751 3.47351 13.5673 3.69643 13.4382C3.8919 13.3291 4.07971 13.2068 4.25856 13.0722C4.62122 12.7851 4.70335 12.3679 4.69695 11.941C4.69375 11.7681 4.58282 11.6902 4.40362 11.703C4.20497 11.7172 4.00674 11.7366 3.80867 11.7559C3.69407 11.7671 3.57952 11.7782 3.46497 11.7884C3.41631 11.7935 3.36715 11.7966 3.30134 11.8008C3.27049 11.8027 3.23599 11.8049 3.19617 11.8076C3.24227 11.7309 3.28275 11.658 3.32123 11.5887C3.38605 11.472 3.44523 11.3654 3.51617 11.2677C3.87456 10.7661 4.24362 10.2688 4.62122 9.7801C4.83455 9.50372 5.14708 9.39381 5.48201 9.33938C5.8564 9.27749 6.22013 9.18785 6.46759 8.86772C6.57813 8.72663 6.66628 8.56934 6.72892 8.40139C6.73931 8.35487 6.73833 8.30652 6.72607 8.26046C6.71382 8.21439 6.69065 8.17195 6.65852 8.13675C6.52842 8.02788 6.38142 7.94102 6.22333 7.87957C6.06789 7.81971 5.90647 7.77483 5.74485 7.72989C5.67024 7.70915 5.59559 7.68839 5.52147 7.66615C5.49381 7.65737 5.46658 7.64775 5.43005 7.63483C5.40883 7.62733 5.38447 7.61872 5.35508 7.60853C5.43573 7.55378 5.5132 7.50069 5.58853 7.44907C5.73934 7.34572 5.8816 7.24823 6.02387 7.155C6.18575 7.05204 6.34787 6.95099 6.50975 6.8501C6.83105 6.64983 7.15141 6.45016 7.46704 6.23728C7.63723 6.13029 7.8397 6.08683 8.03877 6.11457C8.36156 6.1486 8.68591 6.16569 9.01049 6.16579C9.43288 6.15191 9.73475 5.90861 9.94807 5.5618C9.96367 5.52297 9.9693 5.48085 9.96445 5.43929C9.95961 5.39772 9.94444 5.35803 9.92034 5.32383C9.71297 5.14021 9.4973 4.96725 9.28173 4.79436C9.2079 4.73515 9.13409 4.67595 9.06062 4.61634C9.04371 4.60089 9.02427 4.58697 8.99671 4.56723C8.98428 4.55832 8.9702 4.54824 8.95396 4.5363C9.04691 4.51245 9.13729 4.48949 9.22586 4.46699C9.41068 4.42005 9.5876 4.37511 9.76354 4.32822C9.87744 4.29834 9.99139 4.26874 10.1053 4.23915C10.4961 4.13763 10.8868 4.03614 11.275 3.92378C11.5379 3.84645 11.8206 3.87557 12.0622 4.00488C12.1375 4.04218 12.2119 4.08135 12.2863 4.12052C12.429 4.19566 12.5717 4.27076 12.7203 4.33248C13.1288 4.50322 13.5043 4.39011 13.8456 4.14467C14.0056 4.02942 13.9747 3.85335 13.9331 3.68901C13.8737 3.44806 13.7186 3.2685 13.5637 3.08918C13.5238 3.04295 13.4839 2.99674 13.4456 2.9495C13.4094 2.90884 13.377 2.86818 13.3448 2.82775C13.3229 2.80027 13.301 2.77289 13.2782 2.74569L13.2952 2.70514C13.3752 2.71434 13.4552 2.72309 13.5352 2.73185C13.6686 2.74644 13.8019 2.76103 13.9352 2.7777C14.1425 2.8044 14.3496 2.83214 14.5567 2.85988C14.9455 2.91194 15.3343 2.96401 15.724 3.00926C15.8861 3.02559 16.0422 3.0794 16.1799 3.16644C16.3176 3.25349 16.4332 3.37138 16.5176 3.51081C16.6427 3.71725 16.8215 3.88584 17.0349 3.99859C17.2483 4.11135 17.4883 4.16405 17.7293 4.15108C18.0589 4.14787 18.2392 3.9814 18.205 3.66127C18.1817 3.44251 18.138 3.22375 18.0942 3.005C18.0739 2.90362 18.0537 2.80224 18.0354 2.70087C18.0305 2.67715 18.0269 2.65344 18.0206 2.61293C18.0187 2.60057 18.0166 2.58664 18.0141 2.57068C18.0673 2.59731 18.1175 2.62228 18.1657 2.64625C18.2564 2.69142 18.3401 2.73304 18.4237 2.77556C18.5914 2.86006 18.758 2.9462 18.924 3.03212C19.2194 3.18493 19.5133 3.33701 19.8103 3.47773C20.2743 3.69755 20.5591 4.07424 20.8077 4.50109C20.8833 4.62376 20.9387 4.75779 20.9719 4.89806C20.9892 4.98414 21.0274 5.06464 21.0832 5.13239C21.1391 5.20015 21.2107 5.25308 21.2919 5.28648C21.4187 5.35337 21.5503 5.41079 21.6855 5.45829C21.7558 5.4831 21.8308 5.49157 21.9048 5.48306C21.9788 5.47455 22.05 5.44928 22.1128 5.40917C22.1756 5.36905 22.2285 5.31515 22.2673 5.25155C22.3062 5.18796 22.3301 5.11633 22.3372 5.04212C22.3627 4.87605 22.3871 4.70998 22.4115 4.54412C22.4289 4.42542 22.4464 4.30683 22.4642 4.18842C22.4662 4.17488 22.4699 4.1622 22.4765 4.14003C22.4803 4.12725 22.485 4.11132 22.4908 4.09025C22.6263 4.22684 22.7468 4.34849 22.8652 4.47228C23.0071 4.61917 23.1482 4.76673 23.2893 4.9143C23.546 5.18268 23.8026 5.45107 24.0641 5.71546C24.3059 5.95388 24.4462 6.2766 24.4556 6.61611C24.462 6.90734 24.462 7.19965 24.462 7.49195V7.49221C24.4625 7.53944 24.4742 7.58588 24.4961 7.62773C24.5267 7.68986 24.5655 7.74763 24.6113 7.79954C25.0071 8.22532 25.3836 8.22318 25.743 7.75579C25.8409 7.62848 25.9037 7.47405 25.9667 7.31916C25.993 7.25463 26.0192 7.19002 26.0481 7.12726C26.071 7.06465 26.0905 7.00089 26.1068 6.93624C26.18 7.03302 26.2467 7.13462 26.3062 7.24037L26.3573 7.35219C26.6251 7.9392 26.8931 8.52655 27.1489 9.11956C27.2897 9.44396 27.2332 9.77797 27.1382 10.1056C27.0998 10.239 27.0614 10.3724 27.0156 10.5025C26.8652 10.9283 27.0081 11.2879 27.2726 11.6145C27.3097 11.6581 27.3554 11.6937 27.4068 11.7188C27.4582 11.744 27.5143 11.7582 27.5715 11.7606C27.6288 11.763 27.6858 11.7535 27.7392 11.7328C27.7926 11.7121 27.8411 11.6805 27.8817 11.6401C28.0491 11.4768 28.2145 11.3114 28.3755 11.1417C28.4366 11.0776 28.492 11.0083 28.5475 10.9389C28.5714 10.9089 28.5954 10.8789 28.6198 10.8494L28.6774 10.8867C28.6849 10.962 28.6933 11.0374 28.7016 11.1127C28.7169 11.2508 28.7321 11.3889 28.7425 11.527C28.7578 11.7436 28.7718 11.962 28.7857 12.18C28.8055 12.4913 28.8253 12.8016 28.8491 13.1042C28.8897 13.6185 28.6945 14.04 28.3638 14.4135C28.3444 14.4334 28.3274 14.4544 28.3106 14.4749C28.2932 14.4963 28.2761 14.5172 28.2571 14.5362C27.9478 14.85 27.9617 15.2299 28.0438 15.6151C28.111 15.9331 28.3883 16.0654 28.6934 15.9534C28.9057 15.8752 29.1187 15.7996 29.3313 15.7241C29.3974 15.7006 29.4636 15.6771 29.5297 15.6535L29.5691 15.7005C29.5293 15.8508 29.4899 16.0013 29.4505 16.1517C29.3377 16.582 29.225 17.0121 29.1041 17.4398C29.0951 17.4717 29.0863 17.5038 29.0775 17.5362C29.0201 17.7468 28.9608 17.9642 28.8406 18.1335ZM13.4402 9.81745H8.42696L6.29366 11.5248V16.4336L8.32029 18.1409H10.3469V22.196H13.4402V9.81745ZM14.4002 22.196V9.81745H22.6134L25.7067 12.9121V22.196H22.6134V13.8725L21.6534 12.9121V22.196H18.5601V12.9121H17.4935V22.196H14.4002Z" fill="white"/>
<rect x="9.38672" y="12.5919" width="0.959986" height="2.88121" fill="white"/>
</g>
<defs>
<filter id="filter0_d_710_2" x="0.422852" y="2.57068" width="29.1465" height="28.8515" filterUnits="userSpaceOnUse" color-interpolation-filters="sRGB">
<feFlood flood-opacity="0" result="BackgroundImageFix"/>
<feColorMatrix in="SourceAlpha" type="matrix" values="0 0 0 0 0 0 0 0 0 0 0 0 0 0 0 0 0 0 127 0" result="hardAlpha"/>
<feOffset dx="-1" dy="1"/>
<feGaussianBlur stdDeviation="0.5"/>
<feComposite in2="hardAlpha" operator="out"/>
<feColorMatrix type="matrix" values="0 0 0 0 0 0 0 0 0 0 0 0 0 0 0 0 0 0 0.33 0"/>
<feBlend mode="normal" in2="BackgroundImageFix" result="effect1_dropShadow_710_2"/>
<feBlend mode="normal" in="SourceGraphic" in2="effect1_dropShadow_710_2" result="shape"/>
</filter>
</defs>
</svg>
